<svg width="900" height="126" viewBox="0 0 900 126" fill="none" xmlns="http://www.w3.org/2000/svg">
<g clip-path="url(#clip0_69_11127)">
<g opacity="0.7" clip-path="url(#clip1_69_11127)">
<path fill-rule="evenodd" clip-rule="evenodd" d="M734.179 18.7753C736.59 21.8737 735.027 27.2051 730.69 30.6832C726.352 34.1607 720.882 34.4687 718.471 31.3698C716.061 28.2722 717.623 22.94 721.961 19.4619C726.299 15.9844 731.769 15.6772 734.179 18.7753ZM714.027 36.2131C708.104 32.9028 699.83 32.8285 693.596 35.0366C689.605 36.7846 687.912 39.3207 688.006 41.7206C688.074 43.4772 689.099 45.1622 690.878 46.4147C692.247 47.3775 693.878 47.828 695.357 48.592C697.401 49.6486 699.048 50.975 700.127 52.6796C700.922 53.9363 701.399 55.3882 701.551 57.0005C701.758 59.1808 701.192 60.9009 701.634 63.1595C702.136 65.7172 703.489 67.5098 705.405 68.1691C707.523 68.8964 710.334 68.2429 713.449 65.7111C718.882 60.831 721.525 53.5238 721.053 47.2956C720.672 42.256 718.508 38.7155 714.028 36.2131L714.027 36.2131ZM713.091 14.9629C715.545 16.946 715.355 21.5378 712.666 25.2198C709.976 28.9015 705.806 30.2783 703.351 28.2963C700.898 26.3132 701.087 21.7213 703.777 18.0394C706.466 14.3576 710.637 12.9809 713.091 14.9629ZM740.012 56.351C739.207 53.3239 734.897 51.5805 730.383 52.4581C725.869 53.3357 722.863 56.5017 723.667 59.5286C724.472 62.5557 728.782 64.2989 733.296 63.4213C737.809 62.5439 740.816 59.3777 740.012 56.351ZM745.3 35.8721C743.449 32.4196 737.885 31.5994 732.873 34.0393C727.86 36.4801 725.297 41.2567 727.148 44.7099C728.998 48.1616 734.563 48.9826 739.576 46.5427C744.588 44.102 747.151 39.3247 745.3 35.8721Z" fill="#513875"/>
</g>
<g opacity="0.7" clip-path="url(#clip2_69_11127)">
<path fill-rule="evenodd" clip-rule="evenodd" d="M858.924 69.6404C860.387 73.2832 857.415 77.9773 852.287 80.1251C847.159 82.2722 841.816 81.0606 840.353 77.4172C838.89 73.7753 841.862 69.0803 846.99 66.9325C852.118 64.7854 857.461 65.998 858.924 69.6404ZM834.746 80.848C829.965 76.0332 822.032 73.6812 815.43 74.0854C811.112 74.6656 808.786 76.6369 808.215 78.9697C807.796 80.677 808.317 82.5794 809.682 84.2736C810.732 85.5765 812.176 86.4592 813.387 87.6012C815.061 89.1803 816.279 90.9093 816.846 92.8453C817.263 94.2723 817.322 95.7995 817.023 97.3911C816.621 99.544 815.603 101.041 815.406 103.335C815.183 105.931 815.989 108.028 817.65 109.19C819.485 110.472 822.367 110.619 826.059 109.044C832.628 105.851 837.182 99.5549 838.445 93.4378C839.468 88.4884 838.363 84.4885 834.746 80.8481L834.746 80.848ZM839.703 60.1629C841.516 62.7456 840.068 67.1073 836.468 69.9053C832.867 72.7031 828.479 72.877 826.666 70.2952C824.854 67.7126 826.302 63.3509 829.902 60.5529C833.502 57.7551 837.891 57.5813 839.703 60.1629ZM854.174 107.368C854.234 104.237 850.571 101.373 845.991 100.972C841.41 100.571 837.647 102.786 837.585 105.917C837.525 109.049 841.188 111.913 845.769 112.313C850.349 112.714 854.112 110.499 854.174 107.368ZM864.902 89.1403C864.074 85.3113 858.952 82.9892 853.461 83.9529C847.97 84.9176 844.189 88.8026 845.017 92.6323C845.844 96.4603 850.966 98.7832 856.458 97.8196C861.948 96.8549 865.729 92.9691 864.902 89.1403Z" fill="#513875"/>
</g>
<g opacity="0.7" clip-path="url(#clip3_69_11127)">
<path fill-rule="evenodd" clip-rule="evenodd" d="M213.265 84.0303C215.648 87.1497 214.039 92.4672 209.672 95.9074C205.303 99.3469 199.831 99.6071 197.447 96.4873C195.065 93.3688 196.673 88.0504 201.041 84.6103C205.409 81.1708 210.882 80.9114 213.265 84.0303ZM192.962 101.292C187.067 97.9298 178.794 97.7833 172.541 99.9369C168.535 101.65 166.82 104.171 166.893 106.572C166.946 108.329 167.956 110.023 169.724 111.291C171.085 112.266 172.712 112.73 174.184 113.507C176.219 114.582 177.854 115.922 178.918 117.636C179.702 118.9 180.166 120.356 180.304 121.969C180.492 124.151 179.911 125.866 180.334 128.129C180.813 130.691 182.15 132.495 184.061 133.171C186.172 133.917 188.988 133.288 192.125 130.784C197.601 125.951 200.308 118.667 199.89 112.435C199.553 107.392 197.42 103.833 192.962 101.292L192.962 101.292ZM192.211 80.0341C194.647 82.0385 194.418 86.6285 191.696 90.2869C188.974 93.945 184.792 95.2853 182.355 93.282C179.919 91.2776 180.148 86.6875 182.87 83.0292C185.592 79.3711 189.774 78.0307 192.211 80.0341ZM218.77 121.656C217.991 118.622 213.696 116.841 209.175 117.679C204.654 118.517 201.62 121.657 202.397 124.69C203.175 127.724 207.471 129.505 211.992 128.667C216.513 127.829 219.547 124.689 218.77 121.656ZM224.236 101.224C222.416 97.755 216.859 96.8863 211.825 99.2824C206.792 101.679 204.187 106.433 206.008 109.903C207.828 113.37 213.385 114.24 218.419 111.844C223.452 109.447 226.056 104.692 224.236 101.224Z" fill="#513875"/>
</g>
<g opacity="0.7" clip-path="url(#clip4_69_11127)">
<path fill-rule="evenodd" clip-rule="evenodd" d="M88.2271 41.1856C90.9481 44.0152 89.9512 49.4807 86.0013 53.3931C82.0505 57.305 76.6428 58.1831 73.9213 55.3532C71.2008 52.5244 72.1972 47.0581 76.1473 43.1457C80.0979 39.2338 85.5061 38.3565 88.2271 41.1856ZM70.0082 60.6344C63.7711 57.9614 55.5349 58.7524 49.5657 61.6C45.779 63.7557 44.3608 66.4548 44.7049 68.8318C44.9563 70.5716 46.1521 72.1402 48.0519 73.1999C49.5142 74.0144 51.1836 74.2919 52.734 74.8971C54.8774 75.7342 56.6544 76.8812 57.9054 78.4637C58.8269 79.6304 59.4536 81.0245 59.7728 82.6121C60.2065 84.7588 59.8234 86.5286 60.4996 88.7286C61.2659 91.2199 62.7986 92.8613 64.7738 93.3166C66.9559 93.8185 69.6828 92.8748 72.516 90.0314C77.4099 84.61 79.2747 77.0665 78.1538 70.9219C77.2482 65.9496 74.7255 62.6548 70.0084 60.6344L70.0082 60.6344ZM66.8557 39.5985C69.5036 41.3142 69.795 45.9007 67.5051 49.8436C65.2151 53.7863 61.2113 55.5915 58.5633 53.8769C55.9156 52.1612 55.6241 47.5747 57.9142 43.6317C60.2041 39.689 64.2079 37.8839 66.8557 39.5985ZM97.9558 77.9458C96.8388 75.0195 92.3698 73.7362 87.9725 75.0808C83.5753 76.4254 80.9162 79.8883 82.0319 82.8146C83.1488 85.741 87.6178 87.0241 92.0151 85.6795C96.4124 84.3351 99.0714 80.8719 97.9558 77.9458ZM101.074 57.0264C98.8727 53.7862 93.2533 53.5522 88.523 56.5027C83.7934 59.454 81.7435 64.4724 83.9454 67.7131C86.1463 70.9525 91.766 71.1874 96.4963 68.2369C101.226 65.2856 103.275 60.2667 101.074 57.0264Z" fill="#513875"/>
</g>
</g>
<defs>
<clipPath id="clip0_69_11127">
<rect width="900" height="126" fill="white"/>
</clipPath>
<clipPath id="clip1_69_11127">
<rect width="57.926" height="54.3613" fill="white" transform="translate(687.764 14.2538) rotate(-0.5)"/>
</clipPath>
<clipPath id="clip2_69_11127">
<rect width="57.926" height="54.3613" fill="white" transform="translate(815.553 52.5002) rotate(15.5)"/>
</clipPath>
<clipPath id="clip3_69_11127">
<rect width="57.926" height="54.3613" fill="white" transform="translate(166.891 79.104)"/>
</clipPath>
<clipPath id="clip4_69_11127">
<rect width="57.926" height="54.3613" fill="white" transform="translate(41.5934 41.5407) rotate(-6.5)"/>
</clipPath>
</defs>
</svg>
